<?xml version="1.0" encoding="UTF-8" standalone="no"?>
<!-- Generator: Adobe Illustrator 19.0.0, SVG Export Plug-In . SVG Version: 6.00 Build 0)  -->

<svg
   version="1.0"
   id="Layer_1"
   x="0px"
   y="0px"
   viewBox="0 0 434.84103 599.99999"
   enable-background="new 0 0 600 400"
   xml:space="preserve"
   sodipodi:docname="melitix-icon--light.svg"
   width="434.84103"
   height="600"
   inkscape:version="1.1.2 (0a00cf5339, 2022-02-04)"
   inkscape:export-filename="melitix-brand-sample-8.png"
   inkscape:export-xdpi="34.919987"
   inkscape:export-ydpi="34.919987"
   xmlns:inkscape="http://www.inkscape.org/namespaces/inkscape"
   xmlns:sodipodi="http://sodipodi.sourceforge.net/DTD/sodipodi-0.dtd"
   xmlns="http://www.w3.org/2000/svg"
   xmlns:svg="http://www.w3.org/2000/svg"><defs
   id="defs6"><rect
     x="729.36426"
     y="-1814.1516"
     width="1018.0743"
     height="497.39047"
     id="rect23451-2" /><rect
     x="729.36426"
     y="-1814.1516"
     width="561.74634"
     height="215.937"
     id="rect23451-2-3" /><rect
     x="729.36426"
     y="-1814.1516"
     width="561.74634"
     height="215.937"
     id="rect23451-2-6" /><rect
     x="729.36426"
     y="-1814.1516"
     width="561.74634"
     height="215.937"
     id="rect23451-2-9" /><rect
     x="729.36426"
     y="-1814.1516"
     width="1018.0743"
     height="497.39047"
     id="rect23451-2-2" /><rect
     x="729.36426"
     y="-1814.1516"
     width="1018.0743"
     height="497.39047"
     id="rect23451-2-61" /><rect
     x="729.36426"
     y="-1814.1516"
     width="1018.0743"
     height="497.39047"
     id="rect23451-2-2-5" /><rect
     x="729.36426"
     y="-1814.1516"
     width="1018.0743"
     height="497.39047"
     id="rect23451-2-61-7" /><rect
     x="729.36426"
     y="-1814.1516"
     width="1018.0743"
     height="497.39047"
     id="rect23451-2-2-5-3" /><rect
     x="729.36426"
     y="-1814.1516"
     width="1018.0743"
     height="497.39047"
     id="rect23451-2-29" /><rect
     x="729.36426"
     y="-1814.1516"
     width="1018.0743"
     height="497.39047"
     id="rect23451-2-61-3" /><rect
     x="729.36426"
     y="-1814.1516"
     width="1018.0743"
     height="497.39047"
     id="rect23451-2-61-7-9" /><rect
     x="729.36426"
     y="-1814.1516"
     width="1018.0743"
     height="497.39047"
     id="rect23451-2-36" /><rect
     x="729.36426"
     y="-1814.1516"
     width="1018.0743"
     height="497.39047"
     id="rect23451-2-61-75" /><rect
     x="729.36426"
     y="-1814.1516"
     width="1018.0743"
     height="497.39047"
     id="rect23451-2-61-7-3" /><rect
     x="729.36426"
     y="-1814.1516"
     width="1018.0743"
     height="497.39047"
     id="rect23451-2-61-7-7" /><rect
     x="729.36426"
     y="-1814.1516"
     width="1018.0743"
     height="497.39047"
     id="rect23451-2-61-7-3-5" /><rect
     x="729.36426"
     y="-1814.1516"
     width="1018.0743"
     height="497.39047"
     id="rect23451-2-92" /><rect
     x="729.36426"
     y="-1814.1516"
     width="1018.0743"
     height="497.39047"
     id="rect23451-2-61-0" /><rect
     x="729.36426"
     y="-1814.1516"
     width="1018.0743"
     height="497.39047"
     id="rect23451-2-61-7-2" /><rect
     x="729.36426"
     y="-1814.1516"
     width="1018.0743"
     height="497.39047"
     id="rect23451-2-61-7-7-3" /><rect
     x="729.36426"
     y="-1814.1516"
     width="1018.0743"
     height="497.39047"
     id="rect23451-2-36-7" /><rect
     x="729.36426"
     y="-1814.1516"
     width="1018.0743"
     height="497.39047"
     id="rect23451-2-61-7-3-59" /><rect
     x="729.36426"
     y="-1814.1516"
     width="1018.0743"
     height="497.39047"
     id="rect23451-2-61-7-3-5-2" /><rect
     x="729.36426"
     y="-1814.1516"
     width="1018.0743"
     height="497.39047"
     id="rect23451-2-36-6" /><rect
     x="729.36426"
     y="-1814.1516"
     width="1018.0743"
     height="497.39047"
     id="rect23451-2-61-7-3-4" /><rect
     x="729.36426"
     y="-1814.1516"
     width="1018.0743"
     height="497.39047"
     id="rect23451-2-61-7-6" /><rect
     x="729.36426"
     y="-1814.1516"
     width="1018.0743"
     height="497.39047"
     id="rect23451-2-61-7-92" /><rect
     x="729.36426"
     y="-1814.1516"
     width="1018.0743"
     height="497.39047"
     id="rect23451-2-61-7-3-5-26" /><rect
     x="729.36426"
     y="-1814.1516"
     width="1018.0743"
     height="497.39047"
     id="rect23451-2-26" /><rect
     x="729.36426"
     y="-1814.1516"
     width="1018.0743"
     height="497.39047"
     id="rect23451-2-615" /><rect
     x="729.36426"
     y="-1814.1516"
     width="1018.0743"
     height="497.39047"
     id="rect23451-2-92-2" /><rect
     x="729.36426"
     y="-1814.1516"
     width="1018.0743"
     height="497.39047"
     id="rect23451-2-61-0-9" /><rect
     x="729.36426"
     y="-1814.1516"
     width="1018.0743"
     height="497.39047"
     id="rect23451-2-61-7-2-3" /><rect
     x="729.36426"
     y="-1814.1516"
     width="1018.0743"
     height="497.39047"
     id="rect23451-2-36-7-9" /><rect
     x="729.36426"
     y="-1814.1516"
     width="1018.0743"
     height="497.39047"
     id="rect23451-2-61-7-3-5-2-0" /><rect
     x="729.36426"
     y="-1814.1516"
     width="1018.0743"
     height="497.39047"
     id="rect23451-2-61-7-92-8" /><rect
     x="729.36426"
     y="-1814.1516"
     width="1018.0743"
     height="497.39047"
     id="rect23451-2-61-7-3-5-26-8" /><rect
     x="729.36426"
     y="-1814.1516"
     width="1018.0743"
     height="497.39047"
     id="rect23451-2-615-5" /><rect
     x="729.36426"
     y="-1814.1516"
     width="1018.0743"
     height="497.39047"
     id="rect23451-2-36-7-8" /><rect
     x="729.36426"
     y="-1814.1516"
     width="1018.0743"
     height="497.39047"
     id="rect23451-2-36-7-4" /><rect
     x="729.36426"
     y="-1814.1516"
     width="1018.0743"
     height="497.39047"
     id="rect23451-2-0" /><rect
     x="729.36426"
     y="-1814.1516"
     width="1018.0743"
     height="497.39047"
     id="rect23451-2-26-9" /><rect
     x="729.36426"
     y="-1814.1516"
     width="1018.0743"
     height="497.39047"
     id="rect23451-2-61-7-25" /><rect
     x="729.36426"
     y="-1814.1516"
     width="1018.0743"
     height="497.39047"
     id="rect23451-2-36-4" /><rect
     x="729.36426"
     y="-1814.1516"
     width="1018.0743"
     height="497.39047"
     id="rect23451-2-36-6-0" /><rect
     x="729.36426"
     y="-1814.1516"
     width="1018.0743"
     height="497.39047"
     id="rect23451-2-61-7-3-4-5" /><rect
     x="729.36426"
     y="-1814.1516"
     width="1018.0743"
     height="497.39047"
     id="rect23451-2-61-7-3-5-9" /><rect
     x="729.36426"
     y="-1814.1516"
     width="1018.0743"
     height="497.39047"
     id="rect23451-2-61-7-6-4" /><rect
     x="729.36426"
     y="-1814.1516"
     width="1018.0743"
     height="497.39047"
     id="rect23451-2-61-7-36" /><rect
     x="729.36426"
     y="-1814.1516"
     width="1018.0743"
     height="497.39047"
     id="rect23451-2-61-7-3-4-7" /><rect
     x="729.36426"
     y="-1814.1516"
     width="1018.0743"
     height="497.39047"
     id="rect23451-2-61-7-3-5-5" /><rect
     x="729.36426"
     y="-1814.1516"
     width="1018.0743"
     height="497.39047"
     id="rect23451-2-61-7-2-35" /><rect
     x="729.36426"
     y="-1814.1516"
     width="1018.0743"
     height="497.39047"
     id="rect23451-2-61-7-3-5-2-6" /><rect
     x="729.36426"
     y="-1814.1516"
     width="1018.0743"
     height="497.39047"
     id="rect23451-2-61-7-6-2" /><rect
     x="729.36426"
     y="-1814.1516"
     width="1018.0743"
     height="497.39047"
     id="rect23451-2-61-7-25-9" /><rect
     x="729.36426"
     y="-1814.1516"
     width="1018.0743"
     height="497.39047"
     id="rect23451-2-61-7-3-4-5-1" /><rect
     x="729.36426"
     y="-1814.1516"
     width="1018.0743"
     height="497.39047"
     id="rect23451-2-61-7-3-5-9-2" /><rect
     x="729.36426"
     y="-1814.1516"
     width="1018.0743"
     height="497.39047"
     id="rect23451-2-61-7-6-4-7" /><rect
     x="729.36426"
     y="-1814.1516"
     width="1018.0743"
     height="497.39047"
     id="rect23451-2-61-7-92-0" /><rect
     x="729.36426"
     y="-1814.1516"
     width="1018.0743"
     height="497.39047"
     id="rect23451-2-61-7-3-5-26-9" /><rect
     x="729.36426"
     y="-1814.1516"
     width="1018.0743"
     height="497.39047"
     id="rect23451-2-61-7-2-3-3" /><rect
     x="729.36426"
     y="-1814.1516"
     width="1018.0743"
     height="497.39047"
     id="rect23451-2-61-7-3-5-2-0-6" /><rect
     x="729.36426"
     y="-1814.1516"
     width="1018.0743"
     height="497.39047"
     id="rect23451-2-61-7-92-8-0" /><rect
     x="729.36426"
     y="-1814.1516"
     width="1018.0743"
     height="497.39047"
     id="rect23451-2-61-7-3-5-26-8-6" /><rect
     x="729.36426"
     y="-1814.1516"
     width="1018.0743"
     height="497.39047"
     id="rect23451-2-61-7-25-9-4" /><rect
     x="729.36426"
     y="-1814.1516"
     width="1018.0743"
     height="497.39047"
     id="rect23451-2-61-7-25-9-7" /><rect
     x="729.36426"
     y="-1814.1516"
     width="1018.0743"
     height="497.39047"
     id="rect23451-2-61-7-25-9-6" /><rect
     x="729.36426"
     y="-1814.1516"
     width="1018.0743"
     height="497.39047"
     id="rect23451-2-61-7-25-9-1" /><rect
     x="729.36426"
     y="-1814.1516"
     width="1018.0743"
     height="497.39047"
     id="rect23451-2-61-7-25-9-9" /><rect
     x="729.36426"
     y="-1814.1516"
     width="1018.0743"
     height="497.39047"
     id="rect23451-2-61-7-25-9-71" /><rect
     x="729.36426"
     y="-1814.1516"
     width="1018.0743"
     height="497.39047"
     id="rect23451-2-61-7-25-9-73" /><rect
     x="729.36426"
     y="-1814.1516"
     width="1018.0743"
     height="497.39047"
     id="rect23451-2-61-7-3-4-5-1-9" /><rect
     x="729.36426"
     y="-1814.1516"
     width="1018.0743"
     height="497.39047"
     id="rect23451-2-61-7-3-4-5-1-93" /><rect
     x="729.36426"
     y="-1814.1516"
     width="1018.0743"
     height="497.39047"
     id="rect23451-2-61-7-3-4-5-1-5" /><rect
     x="729.36426"
     y="-1814.1516"
     width="1018.0743"
     height="497.39047"
     id="rect23451-2-61-7-3-4-5-1-8" /><rect
     x="729.36426"
     y="-1814.1516"
     width="1018.0743"
     height="497.39047"
     id="rect23451-2-61-7-3-4-5-1-59" /><rect
     x="729.36426"
     y="-1814.1516"
     width="1018.0743"
     height="497.39047"
     id="rect23451-2-61-7-3-4-5-1-0" /><rect
     x="729.36426"
     y="-1814.1516"
     width="1018.0743"
     height="497.39047"
     id="rect23451-2-61-7-3-4-5-1-4" /><rect
     x="729.36426"
     y="-1814.1516"
     width="1018.0743"
     height="497.39047"
     id="rect23451-2-61-7-2-3-5" /><rect
     x="729.36426"
     y="-1814.1516"
     width="1018.0743"
     height="497.39047"
     id="rect23451-2-61-7-3-5-26-8-9" /><rect
     x="729.36426"
     y="-1814.1516"
     width="1018.0743"
     height="497.39047"
     id="rect23451-2-36-7-4-6" /><rect
     x="729.36426"
     y="-1814.1516"
     width="1018.0743"
     height="497.39047"
     id="rect23451-2-61-7-25-9-71-2" /><rect
     x="729.36426"
     y="-1814.1516"
     width="1018.0743"
     height="497.39047"
     id="rect23451-2-61-7-3-4-5-1-0-1" /><rect
     x="729.36426"
     y="-1814.1516"
     width="1018.0743"
     height="497.39047"
     id="rect23451-2-61-7-2-3-5-5" /><rect
     x="729.36426"
     y="-1814.1516"
     width="1018.0743"
     height="497.39047"
     id="rect23451-2-61-7-3-5-26-8-9-9" /><rect
     x="729.36426"
     y="-1814.1516"
     width="1018.0743"
     height="497.39047"
     id="rect23451-2-36-7-4-6-4" /><rect
     x="729.36426"
     y="-1814.1516"
     width="1018.0743"
     height="497.39047"
     id="rect23451-2-61-7-25-9-71-2-6" /><rect
     x="729.36426"
     y="-1814.1516"
     width="1018.0743"
     height="497.39047"
     id="rect23451-2-61-7-3-4-5-1-0-1-9" /><rect
     x="729.36426"
     y="-1814.1516"
     width="1018.0743"
     height="497.39047"
     id="rect23451-2-61-7-3-4-5-1-0-6" /><rect
     x="729.36426"
     y="-1814.1516"
     width="1018.0743"
     height="497.39047"
     id="rect23451-2-61-7-3-4-5-1-0-4" /><rect
     x="729.36426"
     y="-1814.1516"
     width="1018.0743"
     height="497.39047"
     id="rect23451-2-61-7-3-4-5-1-0-11" /><rect
     x="729.36426"
     y="-1814.1516"
     width="1018.0743"
     height="497.39047"
     id="rect23451-2-61-7-3-4-5-1-0-64" /></defs><sodipodi:namedview
   id="namedview4"
   pagecolor="#505050"
   bordercolor="#ffffff"
   borderopacity="1"
   inkscape:showpageshadow="0"
   inkscape:pageopacity="0"
   inkscape:pagecheckerboard="1"
   inkscape:deskcolor="#505050"
   showgrid="false"
   inkscape:zoom="0.65119116"
   inkscape:cx="176.59945"
   inkscape:cy="315.57554"
   inkscape:window-width="1280"
   inkscape:window-height="736"
   inkscape:window-x="0"
   inkscape:window-y="0"
   inkscape:window-maximized="1"
   inkscape:current-layer="Layer_1"
   inkscape:pageshadow="0" />

<style
   type="text/css"
   id="style1">
	.st0{fill:#161616;}
</style><g
   id="g3-7-9"
   transform="matrix(0.82575208,0,0,0.82575208,-228.48561,-145.90612)"
   style="fill:#006241;fill-opacity:1">
	<path
   class="st0"
   d="m 386.29999,451.69476 c -5.5,-23.29998 -8.04242,-46.71588 -8.04242,-70.01587 0,-89.32788 72.41455,-161.74243 161.74243,-161.74243 89.32788,0 161.74243,72.41455 161.74243,161.74243 1.40955,98.71589 -51.45038,200.46442 -146.14245,293.21589 0,0 20.21948,20.20782 32.40002,28.70001 C 693.552,598.02753 744.98407,488.52075 744.98407,381.67889 744.98407,268.4693 653.20959,176.69482 540,176.69482 c -113.20959,0 -204.98407,91.77448 -204.98407,204.98407 0,33.09998 4.58411,66.01593 14.08411,98.71589 z"
   id="path1-2-9"
   style="fill:#006241;fill-opacity:1" />
	<path
   class="st0"
   d="M 770.5,538.69476 741.59998,516.29474 C 736.5,529.99475 730.5,543.59473 723.79999,557.19476 L 744,572.89478 c 10.20001,7.90002 16.09998,19.90002 16.09998,32.79998 v 240.39997 c -45.40003,-24.5 -135.29999,-77.70002 -216.40003,-152.70002 -55.79999,-51.59997 -97.70001,-104.09997 -125.29999,-157 l -34.59997,26.90003 c 29.89996,55 73.5,109.09997 130.59997,161.89996 82.099,75.87146 178.3974,135.73273 256.99732,175.70166 14.60608,7.42731 31.90271,-3.22308 31.90271,-19.60913 V 605.59479 c -0.1,-26.40003 -12,-50.79999 -32.79999,-66.90003 z"
   id="path2-8-1"
   style="fill:#006241;fill-opacity:1" />
	<path
   class="st0"
   d="M 319.90002,846.09473 V 605.59479 c 0,-12.90003 6,-24.90003 16.20002,-32.79999 L 531.3175,421.17249 c 5.107,-3.9665 12.25287,-3.96747 17.36091,-0.002 l 105.0216,81.52453 c 6.20001,-14.20001 11.40003,-28.5 15.40003,-42.70001 l -91.98413,-71.34283 c -21.91486,-16.99713 -52.56098,-16.98676 -74.46436,0.0252 L 309.5,538.69476 c -20.79999,16.20002 -32.79999,40.59998 -32.79999,66.90003 v 275.69244 c 0,16.38605 17.29663,27.03644 31.90271,19.60913 65.31415,-33.21295 142.84308,-80.1737 214.29645,-138.63086 -7.87164,-6.79303 -29.44891,-26.5263 -32.40924,-29.34057 -67.1839,54.26043 -133.63171,93.2254 -170.58991,113.1698 z"
   id="path3-2-4"
   style="fill:#006241;fill-opacity:1" />
</g></svg>
